<mxfile host="app.diagrams.net" modified="2023-10-28T23:42:29.723Z" agent="Mozilla/5.0 (Windows NT 10.0; Win64; x64) AppleWebKit/537.36 (KHTML, like Gecko) Chrome/118.0.0.0 Safari/537.36" etag="lrLvStPITOeFDVevOGut" version="22.0.8" type="github">
  <diagram name="Page-1" id="Q-JVZddTlde22nPBbQ9p">
    <mxGraphModel dx="636" dy="328" grid="1" gridSize="10" guides="1" tooltips="1" connect="1" arrows="1" fold="1" page="1" pageScale="1" pageWidth="827" pageHeight="1169" math="0" shadow="0">
      <root>
        <mxCell id="0" />
        <mxCell id="1" parent="0" />
        <mxCell id="9M9Ii_pN4NKI0fUzIShf-1" value="&lt;font style=&quot;font-size: 27px;&quot;&gt;1&lt;/font&gt;" style="ellipse;whiteSpace=wrap;html=1;aspect=fixed;" vertex="1" parent="1">
          <mxGeometry x="280" y="130" width="50" height="50" as="geometry" />
        </mxCell>
        <mxCell id="9M9Ii_pN4NKI0fUzIShf-3" value="&lt;span style=&quot;font-size: 27px;&quot;&gt;2&lt;/span&gt;" style="ellipse;whiteSpace=wrap;html=1;aspect=fixed;" vertex="1" parent="1">
          <mxGeometry x="280" y="210" width="50" height="50" as="geometry" />
        </mxCell>
        <mxCell id="9M9Ii_pN4NKI0fUzIShf-4" value="&lt;font style=&quot;font-size: 27px;&quot;&gt;3&lt;/font&gt;" style="ellipse;whiteSpace=wrap;html=1;aspect=fixed;" vertex="1" parent="1">
          <mxGeometry x="551" y="210" width="50" height="50" as="geometry" />
        </mxCell>
        <mxCell id="9M9Ii_pN4NKI0fUzIShf-5" value="&lt;font style=&quot;font-size: 27px;&quot;&gt;4&lt;/font&gt;" style="ellipse;whiteSpace=wrap;html=1;aspect=fixed;" vertex="1" parent="1">
          <mxGeometry x="370" y="130" width="50" height="50" as="geometry" />
        </mxCell>
        <mxCell id="9M9Ii_pN4NKI0fUzIShf-6" value="&lt;font style=&quot;font-size: 27px;&quot;&gt;5&lt;/font&gt;" style="ellipse;whiteSpace=wrap;html=1;aspect=fixed;" vertex="1" parent="1">
          <mxGeometry x="461" y="130" width="50" height="50" as="geometry" />
        </mxCell>
        <mxCell id="9M9Ii_pN4NKI0fUzIShf-7" value="&lt;font style=&quot;font-size: 27px;&quot;&gt;6&lt;br&gt;&lt;/font&gt;" style="ellipse;whiteSpace=wrap;html=1;aspect=fixed;" vertex="1" parent="1">
          <mxGeometry x="461" y="210" width="50" height="50" as="geometry" />
        </mxCell>
        <mxCell id="9M9Ii_pN4NKI0fUzIShf-8" value="&lt;font style=&quot;font-size: 27px;&quot;&gt;7&lt;/font&gt;" style="ellipse;whiteSpace=wrap;html=1;aspect=fixed;" vertex="1" parent="1">
          <mxGeometry x="551" y="130" width="50" height="50" as="geometry" />
        </mxCell>
        <mxCell id="9M9Ii_pN4NKI0fUzIShf-9" value="&lt;font style=&quot;font-size: 27px;&quot;&gt;8&lt;/font&gt;" style="ellipse;whiteSpace=wrap;html=1;aspect=fixed;" vertex="1" parent="1">
          <mxGeometry x="370" y="210" width="50" height="50" as="geometry" />
        </mxCell>
        <mxCell id="9M9Ii_pN4NKI0fUzIShf-28" value="AB/D" style="text;html=1;align=center;verticalAlign=middle;resizable=0;points=[];autosize=1;strokeColor=none;fillColor=none;" vertex="1" parent="1">
          <mxGeometry x="411" y="40" width="50" height="30" as="geometry" />
        </mxCell>
        <mxCell id="9M9Ii_pN4NKI0fUzIShf-29" value="00/0" style="text;html=1;align=center;verticalAlign=middle;resizable=0;points=[];autosize=1;strokeColor=none;fillColor=none;" vertex="1" parent="1">
          <mxGeometry x="280" y="100" width="50" height="30" as="geometry" />
        </mxCell>
        <mxCell id="9M9Ii_pN4NKI0fUzIShf-30" value="01/1" style="text;html=1;align=center;verticalAlign=middle;resizable=0;points=[];autosize=1;strokeColor=none;fillColor=none;" vertex="1" parent="1">
          <mxGeometry x="280" y="268" width="50" height="30" as="geometry" />
        </mxCell>
        <mxCell id="9M9Ii_pN4NKI0fUzIShf-31" value="00/1" style="text;html=1;align=center;verticalAlign=middle;resizable=0;points=[];autosize=1;strokeColor=none;fillColor=none;" vertex="1" parent="1">
          <mxGeometry x="551" y="268" width="50" height="30" as="geometry" />
        </mxCell>
        <mxCell id="9M9Ii_pN4NKI0fUzIShf-32" value="10/0" style="text;html=1;align=center;verticalAlign=middle;resizable=0;points=[];autosize=1;strokeColor=none;fillColor=none;" vertex="1" parent="1">
          <mxGeometry x="370" y="100" width="50" height="30" as="geometry" />
        </mxCell>
        <mxCell id="9M9Ii_pN4NKI0fUzIShf-33" value="11/0" style="text;html=1;align=center;verticalAlign=middle;resizable=0;points=[];autosize=1;strokeColor=none;fillColor=none;" vertex="1" parent="1">
          <mxGeometry x="461" y="100" width="50" height="30" as="geometry" />
        </mxCell>
        <mxCell id="9M9Ii_pN4NKI0fUzIShf-34" value="10/1" style="text;html=1;align=center;verticalAlign=middle;resizable=0;points=[];autosize=1;strokeColor=none;fillColor=none;" vertex="1" parent="1">
          <mxGeometry x="461" y="268" width="50" height="30" as="geometry" />
        </mxCell>
        <mxCell id="9M9Ii_pN4NKI0fUzIShf-35" value="01/0" style="text;html=1;align=center;verticalAlign=middle;resizable=0;points=[];autosize=1;strokeColor=none;fillColor=none;" vertex="1" parent="1">
          <mxGeometry x="551" y="100" width="50" height="30" as="geometry" />
        </mxCell>
        <mxCell id="9M9Ii_pN4NKI0fUzIShf-36" value="11/1" style="text;html=1;align=center;verticalAlign=middle;resizable=0;points=[];autosize=1;strokeColor=none;fillColor=none;" vertex="1" parent="1">
          <mxGeometry x="370" y="268" width="50" height="30" as="geometry" />
        </mxCell>
        <mxCell id="9M9Ii_pN4NKI0fUzIShf-38" value="" style="endArrow=classic;html=1;rounded=0;exitX=1;exitY=0.5;exitDx=0;exitDy=0;entryX=0;entryY=0.5;entryDx=0;entryDy=0;" edge="1" parent="1" source="9M9Ii_pN4NKI0fUzIShf-1" target="9M9Ii_pN4NKI0fUzIShf-5">
          <mxGeometry width="50" height="50" relative="1" as="geometry">
            <mxPoint x="400" y="180" as="sourcePoint" />
            <mxPoint x="450" y="130" as="targetPoint" />
          </mxGeometry>
        </mxCell>
        <mxCell id="9M9Ii_pN4NKI0fUzIShf-39" value="" style="endArrow=classic;html=1;rounded=0;exitX=1;exitY=0.5;exitDx=0;exitDy=0;entryX=0;entryY=0.5;entryDx=0;entryDy=0;" edge="1" parent="1" source="9M9Ii_pN4NKI0fUzIShf-5" target="9M9Ii_pN4NKI0fUzIShf-6">
          <mxGeometry width="50" height="50" relative="1" as="geometry">
            <mxPoint x="340" y="165" as="sourcePoint" />
            <mxPoint x="380" y="165" as="targetPoint" />
          </mxGeometry>
        </mxCell>
        <mxCell id="9M9Ii_pN4NKI0fUzIShf-40" value="" style="endArrow=classic;html=1;rounded=0;exitX=1;exitY=0.5;exitDx=0;exitDy=0;entryX=0;entryY=0.5;entryDx=0;entryDy=0;" edge="1" parent="1" source="9M9Ii_pN4NKI0fUzIShf-6" target="9M9Ii_pN4NKI0fUzIShf-8">
          <mxGeometry width="50" height="50" relative="1" as="geometry">
            <mxPoint x="520" y="114.67" as="sourcePoint" />
            <mxPoint x="560" y="114.67" as="targetPoint" />
          </mxGeometry>
        </mxCell>
        <mxCell id="9M9Ii_pN4NKI0fUzIShf-41" value="" style="endArrow=classic;html=1;rounded=0;exitX=1;exitY=0.5;exitDx=0;exitDy=0;entryX=0;entryY=0.5;entryDx=0;entryDy=0;" edge="1" parent="1" source="9M9Ii_pN4NKI0fUzIShf-3" target="9M9Ii_pN4NKI0fUzIShf-9">
          <mxGeometry width="50" height="50" relative="1" as="geometry">
            <mxPoint x="330" y="200" as="sourcePoint" />
            <mxPoint x="370" y="200" as="targetPoint" />
          </mxGeometry>
        </mxCell>
        <mxCell id="9M9Ii_pN4NKI0fUzIShf-42" value="" style="endArrow=classic;html=1;rounded=0;exitX=1;exitY=0.5;exitDx=0;exitDy=0;entryX=0;entryY=0.5;entryDx=0;entryDy=0;" edge="1" parent="1" source="9M9Ii_pN4NKI0fUzIShf-9" target="9M9Ii_pN4NKI0fUzIShf-7">
          <mxGeometry width="50" height="50" relative="1" as="geometry">
            <mxPoint x="420" y="268" as="sourcePoint" />
            <mxPoint x="460" y="268" as="targetPoint" />
          </mxGeometry>
        </mxCell>
        <mxCell id="9M9Ii_pN4NKI0fUzIShf-43" value="" style="endArrow=classic;html=1;rounded=0;exitX=1;exitY=0.5;exitDx=0;exitDy=0;entryX=0;entryY=0.5;entryDx=0;entryDy=0;" edge="1" parent="1" source="9M9Ii_pN4NKI0fUzIShf-7" target="9M9Ii_pN4NKI0fUzIShf-4">
          <mxGeometry width="50" height="50" relative="1" as="geometry">
            <mxPoint x="380" y="205" as="sourcePoint" />
            <mxPoint x="420" y="205" as="targetPoint" />
          </mxGeometry>
        </mxCell>
        <mxCell id="9M9Ii_pN4NKI0fUzIShf-44" value="" style="endArrow=classic;html=1;rounded=0;exitX=1;exitY=0.5;exitDx=0;exitDy=0;entryX=0;entryY=0.5;entryDx=0;entryDy=0;" edge="1" parent="1" source="9M9Ii_pN4NKI0fUzIShf-8" target="9M9Ii_pN4NKI0fUzIShf-1">
          <mxGeometry width="50" height="50" relative="1" as="geometry">
            <mxPoint x="620" y="200" as="sourcePoint" />
            <mxPoint x="670" y="150" as="targetPoint" />
            <Array as="points">
              <mxPoint x="640" y="155" />
              <mxPoint x="640" y="80" />
              <mxPoint x="240" y="80" />
              <mxPoint x="240" y="155" />
            </Array>
          </mxGeometry>
        </mxCell>
        <mxCell id="9M9Ii_pN4NKI0fUzIShf-45" value="" style="endArrow=classic;html=1;rounded=0;exitX=1;exitY=0.5;exitDx=0;exitDy=0;entryX=0;entryY=0.5;entryDx=0;entryDy=0;" edge="1" parent="1" source="9M9Ii_pN4NKI0fUzIShf-4" target="9M9Ii_pN4NKI0fUzIShf-3">
          <mxGeometry width="50" height="50" relative="1" as="geometry">
            <mxPoint x="390" y="215" as="sourcePoint" />
            <mxPoint x="640" y="235" as="targetPoint" />
            <Array as="points">
              <mxPoint x="640" y="235" />
              <mxPoint x="640" y="320" />
              <mxPoint x="240" y="320" />
              <mxPoint x="240" y="235" />
            </Array>
          </mxGeometry>
        </mxCell>
        <mxCell id="9M9Ii_pN4NKI0fUzIShf-46" value="" style="endArrow=classic;html=1;rounded=0;exitX=0;exitY=1;exitDx=0;exitDy=0;entryX=0;entryY=0;entryDx=0;entryDy=0;" edge="1" parent="1" source="9M9Ii_pN4NKI0fUzIShf-1" target="9M9Ii_pN4NKI0fUzIShf-3">
          <mxGeometry width="50" height="50" relative="1" as="geometry">
            <mxPoint x="400" y="225" as="sourcePoint" />
            <mxPoint x="440" y="225" as="targetPoint" />
          </mxGeometry>
        </mxCell>
        <mxCell id="9M9Ii_pN4NKI0fUzIShf-47" value="" style="endArrow=classic;html=1;rounded=0;exitX=1;exitY=0;exitDx=0;exitDy=0;entryX=1;entryY=1;entryDx=0;entryDy=0;" edge="1" parent="1" source="9M9Ii_pN4NKI0fUzIShf-3" target="9M9Ii_pN4NKI0fUzIShf-1">
          <mxGeometry width="50" height="50" relative="1" as="geometry">
            <mxPoint x="410" y="235" as="sourcePoint" />
            <mxPoint x="450" y="235" as="targetPoint" />
          </mxGeometry>
        </mxCell>
        <mxCell id="9M9Ii_pN4NKI0fUzIShf-48" value="" style="endArrow=classic;html=1;rounded=0;exitX=0.98;exitY=0.673;exitDx=0;exitDy=0;entryX=0.24;entryY=0.107;entryDx=0;entryDy=0;exitPerimeter=0;entryPerimeter=0;" edge="1" parent="1" source="9M9Ii_pN4NKI0fUzIShf-5" target="9M9Ii_pN4NKI0fUzIShf-4">
          <mxGeometry width="50" height="50" relative="1" as="geometry">
            <mxPoint x="420" y="245" as="sourcePoint" />
            <mxPoint x="460" y="210" as="targetPoint" />
          </mxGeometry>
        </mxCell>
        <mxCell id="9M9Ii_pN4NKI0fUzIShf-49" value="" style="endArrow=classic;html=1;rounded=0;exitX=0.047;exitY=0.727;exitDx=0;exitDy=0;entryX=0.713;entryY=0.073;entryDx=0;entryDy=0;entryPerimeter=0;exitPerimeter=0;" edge="1" parent="1" source="9M9Ii_pN4NKI0fUzIShf-8" target="9M9Ii_pN4NKI0fUzIShf-9">
          <mxGeometry width="50" height="50" relative="1" as="geometry">
            <mxPoint x="430" y="255" as="sourcePoint" />
            <mxPoint x="470" y="255" as="targetPoint" />
            <Array as="points">
              <mxPoint x="480" y="190" />
            </Array>
          </mxGeometry>
        </mxCell>
        <mxCell id="9M9Ii_pN4NKI0fUzIShf-50" value="" style="endArrow=classic;html=1;rounded=0;exitX=0.98;exitY=0.333;exitDx=0;exitDy=0;entryX=0.247;entryY=0.94;entryDx=0;entryDy=0;exitPerimeter=0;entryPerimeter=0;" edge="1" parent="1" source="9M9Ii_pN4NKI0fUzIShf-9" target="9M9Ii_pN4NKI0fUzIShf-8">
          <mxGeometry width="50" height="50" relative="1" as="geometry">
            <mxPoint x="440" y="265" as="sourcePoint" />
            <mxPoint x="480" y="265" as="targetPoint" />
          </mxGeometry>
        </mxCell>
        <mxCell id="9M9Ii_pN4NKI0fUzIShf-51" value="" style="endArrow=classic;html=1;rounded=0;exitX=0;exitY=1;exitDx=0;exitDy=0;entryX=0;entryY=0;entryDx=0;entryDy=0;" edge="1" parent="1" source="9M9Ii_pN4NKI0fUzIShf-6" target="9M9Ii_pN4NKI0fUzIShf-7">
          <mxGeometry width="50" height="50" relative="1" as="geometry">
            <mxPoint x="435.78999999999996" y="180" as="sourcePoint" />
            <mxPoint x="435.78999999999996" y="224" as="targetPoint" />
          </mxGeometry>
        </mxCell>
        <mxCell id="9M9Ii_pN4NKI0fUzIShf-52" value="" style="endArrow=classic;html=1;rounded=0;exitX=1;exitY=0;exitDx=0;exitDy=0;entryX=1;entryY=1;entryDx=0;entryDy=0;" edge="1" parent="1" source="9M9Ii_pN4NKI0fUzIShf-7" target="9M9Ii_pN4NKI0fUzIShf-6">
          <mxGeometry width="50" height="50" relative="1" as="geometry">
            <mxPoint x="307" y="193" as="sourcePoint" />
            <mxPoint x="307" y="237" as="targetPoint" />
          </mxGeometry>
        </mxCell>
        <mxCell id="9M9Ii_pN4NKI0fUzIShf-53" value="" style="endArrow=classic;html=1;rounded=0;exitX=0.027;exitY=0.32;exitDx=0;exitDy=0;entryX=0.733;entryY=0.94;entryDx=0;entryDy=0;exitPerimeter=0;entryPerimeter=0;" edge="1" parent="1" source="9M9Ii_pN4NKI0fUzIShf-4" target="9M9Ii_pN4NKI0fUzIShf-5">
          <mxGeometry width="50" height="50" relative="1" as="geometry">
            <mxPoint x="317" y="203" as="sourcePoint" />
            <mxPoint x="317" y="247" as="targetPoint" />
          </mxGeometry>
        </mxCell>
      </root>
    </mxGraphModel>
  </diagram>
</mxfile>
